<svg width="1400" height="483" viewBox="0 0 1400 483" fill="none" xmlns="http://www.w3.org/2000/svg">
<circle cx="686.5" cy="261.5" r="151.5" fill="#34A853"/>
<circle cx="574" cy="355" r="55" fill="#FBBC05"/>
<circle cx="518" cy="145" r="35" fill="#4285F4"/>
<circle cx="741" cy="433" r="20" fill="#EA4335"/>
<circle cx="280" cy="133" r="20" fill="#EA4335"/>
<circle cx="170" cy="173" r="20" fill="#EA4335"/>
<circle cx="1005" cy="104" r="12" fill="#34A853"/>
<circle cx="881" cy="266" r="12" fill="#34A853"/>
<circle cx="1210" cy="336" r="12" fill="#F34F1C"/>
<circle cx="411" cy="217" r="12" fill="#EA4335"/>
<circle cx="372" cy="283" r="12" fill="#EA4335"/>
<circle cx="225" cy="324" r="12" fill="#01A6F0"/>
<circle cx="358" cy="112" r="14" fill="#FBBC05"/>
<circle cx="978.5" cy="290.5" r="17.5" fill="#FBBC05"/>
<circle cx="1086.5" cy="318.5" r="17.5" fill="#FFBA01"/>
<circle cx="1307.5" cy="307.5" r="17.5" fill="#FBBC05"/>
<circle cx="277.5" cy="419.5" r="17.5" fill="#FBBC05"/>
<circle cx="102.5" cy="373.5" r="17.5" fill="#FBBC05"/>
<circle cx="343.5" cy="363.5" r="27.5" fill="#7FBC00"/>
<circle cx="252.5" cy="237.5" r="27.5" fill="#7FBC00"/>
<circle cx="977.5" cy="201.5" r="27.5" fill="#34A853"/>
<circle cx="1164.5" cy="261.5" r="27.5" fill="#7FBC00"/>
<circle cx="1096" cy="195" r="15" fill="#FBBC05"/>
<circle cx="1222" cy="392" r="15" fill="#FFBA01"/>
<circle cx="468" cy="280" r="15" fill="#FBBC05"/>
<circle cx="901" cy="133" r="20" fill="#EA4335"/>
<circle cx="1131" cy="136" r="20" fill="#F34F1C"/>
<circle cx="1247" cy="221" r="20" fill="#F34F1C"/>
<circle cx="1028" cy="408" r="16" fill="#4285F4"/>
<circle cx="1137" cy="376" r="16" fill="#4285F4"/>
<circle cx="1231" cy="164" r="16" fill="#4285F4"/>
<circle cx="439.5" cy="426.5" r="16.5" fill="#01A6F0"/>
<circle cx="120.5" cy="264.5" r="16.5" fill="#01A6F0"/>
<circle cx="909" cy="395" r="10" fill="#7FBC00"/>
<circle cx="328" cy="184" r="16" fill="#4285F4"/>
</svg>
